<?xml version="1.0" encoding="iso-8859-1"?>
<!-- Generator: Adobe Illustrator 19.0.0, SVG Export Plug-In . SVG Version: 6.00 Build 0)  -->
<svg version="1.1" id="Capa_1" xmlns="http://www.w3.org/2000/svg" xmlns:xlink="http://www.w3.org/1999/xlink" x="0px" y="0px"
	 viewBox="0 0 490 490" style="enable-background:new 0 0 490 490;" xml:space="preserve">
<g>
	<g>
		<path d="M244.911,0c0,0-150.9,201.1-150.9,341.1c0,82.4,67.7,148.9,150.9,148.9s147-66.9,150.9-148.9
			C402.011,213.1,244.911,0,244.911,0z M270.611,341.1v49.8c0,14.2-11.5,25.7-25.7,25.7l0,0c-14.2,0-25.7-11.5-25.7-25.7v-49.8
			h-50.1c-14.2,0-25.7-11.5-25.7-25.7l0,0c0-14.2,11.5-25.7,25.7-25.7h49.8v-50.2c0-14.2,11.5-25.7,25.7-25.7l0,0
			c14.2,0,25.7,11.5,25.7,25.7v49.8h49.8c14.2,0,25.7,11.5,25.7,25.7v0.4c0,14.2-11.5,25.7-25.7,25.7H270.611z"/>
	</g>
</g>
<g>
</g>
<g>
</g>
<g>
</g>
<g>
</g>
<g>
</g>
<g>
</g>
<g>
</g>
<g>
</g>
<g>
</g>
<g>
</g>
<g>
</g>
<g>
</g>
<g>
</g>
<g>
</g>
<g>
</g>
</svg>
