<?xml version="1.0" encoding="iso-8859-1"?>
<!-- Generator: Adobe Illustrator 19.0.0, SVG Export Plug-In . SVG Version: 6.00 Build 0)  -->
<svg version="1.1" id="Layer_1" xmlns="http://www.w3.org/2000/svg" xmlns:xlink="http://www.w3.org/1999/xlink" x="0px" y="0px"
	 viewBox="0 0 512 512" style="enable-background:new 0 0 512 512;" xml:space="preserve">
<g>
	<g>
		<path d="M443.893,0H68.107c-11.28,0-20.426,9.145-20.426,20.426v471.149c0,11.28,9.145,20.426,20.426,20.426h270.957
			c5.417,0,10.612-2.151,14.442-5.983l104.829-104.829c3.83-3.83,5.983-9.025,5.983-14.444V20.426
			C464.319,9.145,455.175,0,443.893,0z M244.31,384.196h-30.603V414.8c0,11.28-9.145,20.426-20.426,20.426
			s-20.426-9.145-20.426-20.426v-30.604h-30.604c-11.28,0-20.426-9.145-20.426-20.426s9.145-20.426,20.426-20.426h30.604v-30.604
			c0-11.28,9.145-20.426,20.426-20.426s20.426,9.145,20.426,20.426v30.604h30.603c11.28,0,20.425,9.145,20.425,20.426
			S255.591,384.196,244.31,384.196z M247.83,249.153H142.253c-11.28,0-20.426-9.145-20.426-20.426s9.145-20.426,20.426-20.426
			H247.83c11.28,0,20.426,9.145,20.426,20.426S259.11,249.153,247.83,249.153z M369.747,186.469H142.253
			c-11.28,0-20.426-9.145-20.426-20.425s9.145-20.426,20.426-20.426h227.494c11.28,0,20.426,9.145,20.426,20.426
			S381.027,186.469,369.747,186.469z M369.747,123.783H142.253c-11.28,0-20.426-9.145-20.426-20.426s9.145-20.426,20.426-20.426
			h227.494c11.28,0,20.426,9.145,20.426,20.426S381.027,123.783,369.747,123.783z"/>
	</g>
</g>
<g>
</g>
<g>
</g>
<g>
</g>
<g>
</g>
<g>
</g>
<g>
</g>
<g>
</g>
<g>
</g>
<g>
</g>
<g>
</g>
<g>
</g>
<g>
</g>
<g>
</g>
<g>
</g>
<g>
</g>
</svg>
