<svg width="85" height="85" viewBox="0 0 85 85" fill="none" xmlns="http://www.w3.org/2000/svg">
<g filter="url(#filter0_d_105_141)">
<path d="M42.5 67C59.3447 67 73 53.3447 73 36.5C73 19.6553 59.3447 6 42.5 6C25.6553 6 12 19.6553 12 36.5C12 53.3447 25.6553 67 42.5 67Z" fill="#BE1E2D"/>
</g>
<path d="M51.6951 37.7129C50.1352 37.7129 48.6103 38.1755 47.3133 39.0421C46.0163 39.9087 45.0054 41.1405 44.4085 42.5817C43.8115 44.0228 43.6553 45.6086 43.9597 47.1386C44.264 48.6685 45.0151 50.0738 46.1182 51.1768C47.2212 52.2799 48.6265 53.031 50.1564 53.3353C51.6864 53.6397 53.2722 53.4835 54.7133 52.8865C56.1545 52.2896 57.3863 51.2787 58.2529 49.9817C59.1195 48.6847 59.5821 47.1598 59.5821 45.5999C59.5787 43.5092 58.7466 41.5051 57.2683 40.0267C55.7899 38.5484 53.7858 37.7163 51.6951 37.7129ZM51.6951 52.2739C50.3751 52.2739 49.0848 51.8825 47.9872 51.1491C46.8897 50.4158 46.0343 49.3734 45.5291 48.1539C45.024 46.9344 44.8918 45.5925 45.1493 44.2979C45.4069 43.0032 46.0425 41.814 46.9759 40.8807C47.9093 39.9473 49.0984 39.3116 50.3931 39.0541C51.6877 38.7966 53.0296 38.9288 54.2491 39.4339C55.4687 39.9391 56.511 40.7945 57.2443 41.892C57.9777 42.9895 58.3691 44.2799 58.3691 45.5999C58.367 47.3693 57.6632 49.0656 56.412 50.3168C55.1608 51.5679 53.4645 52.2718 51.6951 52.2739V52.2739Z" fill="white"/>
<path d="M55.335 44.9937H52.302V41.9607C52.3053 41.879 52.2921 41.7975 52.2631 41.721C52.2341 41.6445 52.19 41.5747 52.1334 41.5157C52.0767 41.4567 52.0087 41.4098 51.9335 41.3777C51.8583 41.3456 51.7773 41.3291 51.6955 41.3291C51.6137 41.3291 51.5328 41.3456 51.4576 41.3777C51.3823 41.4098 51.3143 41.4567 51.2577 41.5157C51.201 41.5747 51.1569 41.6445 51.1279 41.721C51.0989 41.7975 51.0857 41.879 51.089 41.9607V44.9937H48.055C47.8984 45.0001 47.7504 45.0668 47.6418 45.1798C47.5333 45.2929 47.4727 45.4435 47.4727 45.6002C47.4727 45.757 47.5333 45.9076 47.6418 46.0206C47.7504 46.1337 47.8984 46.2004 48.055 46.2067H51.088V49.2407C51.0847 49.3225 51.0979 49.404 51.1269 49.4805C51.1559 49.557 51.2 49.6268 51.2567 49.6858C51.3133 49.7448 51.3813 49.7917 51.4566 49.8238C51.5318 49.8558 51.6127 49.8724 51.6945 49.8724C51.7763 49.8724 51.8573 49.8558 51.9325 49.8238C52.0077 49.7917 52.0757 49.7448 52.1324 49.6858C52.189 49.6268 52.2331 49.557 52.2621 49.4805C52.2911 49.404 52.3043 49.3225 52.301 49.2407V46.2077H55.335C55.4916 46.2014 55.6397 46.1347 55.7482 46.0216C55.8568 45.9086 55.9174 45.758 55.9174 45.6012C55.9174 45.4445 55.8568 45.2939 55.7482 45.1808C55.6397 45.0678 55.4916 45.0011 55.335 44.9947V44.9937Z" fill="white"/>
<path d="M41.381 45.6007C41.2993 45.604 41.2177 45.5908 41.1413 45.5618C41.0648 45.5328 40.9949 45.4887 40.936 45.4321C40.877 45.3754 40.83 45.3074 40.798 45.2322C40.7659 45.1569 40.7494 45.076 40.7494 44.9942C40.7494 44.9124 40.7659 44.8315 40.798 44.7563C40.83 44.681 40.877 44.613 40.936 44.5564C40.9949 44.4997 41.0648 44.4556 41.1413 44.4266C41.2177 44.3976 41.2993 44.3844 41.381 44.3877H42.072C42.2975 42.6249 43.0018 40.9577 44.1085 39.5672C45.2152 38.1767 46.6818 37.1161 48.349 36.5007H41.381C41.2993 36.504 41.2177 36.4908 41.1413 36.4618C41.0648 36.4328 40.9949 36.3887 40.936 36.3321C40.877 36.2754 40.83 36.2074 40.798 36.1322C40.7659 36.0569 40.7494 35.976 40.7494 35.8942C40.7494 35.8124 40.7659 35.7315 40.798 35.6563C40.83 35.581 40.877 35.513 40.936 35.4564C40.9949 35.3997 41.0648 35.3556 41.1413 35.3266C41.2177 35.2976 41.2993 35.2844 41.381 35.2877H52.3C52.3891 35.2769 52.4795 35.2883 52.5631 35.3209C52.6468 35.3534 52.7211 35.4061 52.7794 35.4743C52.8378 35.5425 52.8784 35.624 52.8977 35.7116C52.917 35.7993 52.9144 35.8903 52.89 35.9767C54.6733 36.197 56.3599 36.9104 57.76 38.0367V26.8987C57.7566 24.941 56.9775 23.0644 55.5933 21.6798C54.2092 20.2953 52.3328 19.5157 50.375 19.5117H32.387C30.4289 19.5152 28.552 20.2945 27.1674 21.6791C25.7828 23.0637 25.0034 24.9406 25 26.8987V44.8867C25.0034 46.8448 25.7828 48.7217 27.1674 50.1063C28.552 51.4909 30.4289 52.2703 32.387 52.2737H44.665C42.9472 50.4763 41.9884 48.0859 41.988 45.5997L41.381 45.6007ZM41.381 26.7927H52.3C52.3817 26.7894 52.4633 26.8026 52.5397 26.8316C52.6162 26.8606 52.6861 26.9047 52.745 26.9614C52.804 27.018 52.851 27.086 52.883 27.1613C52.9151 27.2365 52.9316 27.3174 52.9316 27.3992C52.9316 27.481 52.9151 27.5619 52.883 27.6372C52.851 27.7124 52.804 27.7804 52.745 27.8371C52.6861 27.8937 52.6162 27.9378 52.5397 27.9668C52.4633 27.9958 52.3817 28.009 52.3 28.0057H41.381C41.2244 27.9994 41.0763 27.9327 40.9678 27.8196C40.8592 27.7066 40.7986 27.5559 40.7986 27.3992C40.7986 27.2425 40.8592 27.0918 40.9678 26.9788C41.0763 26.8658 41.2244 26.7991 41.381 26.7927ZM37.551 42.3547L33.391 47.2117C33.2907 47.3288 33.1497 47.4034 32.9965 47.4203C32.8433 47.4372 32.6894 47.3951 32.566 47.3027L29.793 45.2227C29.7293 45.1749 29.6757 45.115 29.6351 45.0465C29.5946 44.978 29.5679 44.9021 29.5567 44.8233C29.5454 44.7444 29.5498 44.6642 29.5696 44.587C29.5894 44.5099 29.6242 44.4374 29.672 44.3737C29.7198 44.31 29.7797 44.2564 29.8482 44.2158C29.9168 44.1753 29.9926 44.1486 30.0714 44.1374C30.1503 44.1261 30.2306 44.1306 30.3077 44.1503C30.3848 44.1701 30.4573 44.2049 30.521 44.2527L32.84 45.9867L36.631 41.5657C36.7356 41.4436 36.8845 41.368 37.0448 41.3556C37.2052 41.3433 37.3639 41.3951 37.486 41.4997C37.6081 41.6043 37.6837 41.7532 37.6961 41.9135C37.7085 42.0739 37.6566 42.2326 37.552 42.3547H37.551ZM37.551 33.2547L33.391 38.1117C33.2907 38.2288 33.1497 38.3034 32.9965 38.3203C32.8433 38.3372 32.6894 38.2951 32.566 38.2027L29.793 36.1227C29.6644 36.0262 29.5794 35.8825 29.5567 35.7233C29.534 35.5641 29.5755 35.4023 29.672 35.2737C29.7685 35.1451 29.9122 35.0601 30.0714 35.0374C30.2307 35.0147 30.3924 35.0562 30.521 35.1527L32.84 36.8867L36.631 32.4647C36.7356 32.3426 36.8845 32.267 37.0448 32.2546C37.2052 32.2423 37.3639 32.2941 37.486 32.3987C37.6081 32.5033 37.6837 32.6522 37.6961 32.8125C37.7085 32.9729 37.6566 33.1316 37.552 33.2537L37.551 33.2547ZM37.551 24.7607L33.391 29.6117C33.2907 29.7288 33.1497 29.8034 32.9965 29.8203C32.8433 29.8372 32.6894 29.7951 32.566 29.7027L29.793 27.6237C29.7293 27.5759 29.6757 27.516 29.6351 27.4475C29.5946 27.379 29.5679 27.3031 29.5567 27.2243C29.534 27.0651 29.5755 26.9033 29.672 26.7747C29.7685 26.6461 29.9122 26.5611 30.0714 26.5384C30.2307 26.5157 30.3924 26.5572 30.521 26.6537L32.84 28.3927L36.631 23.9707C36.7356 23.8486 36.8845 23.773 37.0448 23.7606C37.2052 23.7483 37.3639 23.8001 37.486 23.9047C37.6081 24.0093 37.6837 24.1582 37.6961 24.3185C37.7085 24.4789 37.6566 24.6376 37.552 24.7597L37.551 24.7607Z" fill="white"/>
<defs>
<filter id="filter0_d_105_141" x="0" y="0" width="85" height="85" filterUnits="userSpaceOnUse" color-interpolation-filters="sRGB">
<feFlood flood-opacity="0" result="BackgroundImageFix"/>
<feColorMatrix in="SourceAlpha" type="matrix" values="0 0 0 0 0 0 0 0 0 0 0 0 0 0 0 0 0 0 127 0" result="hardAlpha"/>
<feOffset dy="6"/>
<feGaussianBlur stdDeviation="6"/>
<feColorMatrix type="matrix" values="0 0 0 0 0 0 0 0 0 0 0 0 0 0 0 0 0 0 0.161 0"/>
<feBlend mode="normal" in2="BackgroundImageFix" result="effect1_dropShadow_105_141"/>
<feBlend mode="normal" in="SourceGraphic" in2="effect1_dropShadow_105_141" result="shape"/>
</filter>
</defs>
</svg>
