<?xml version="1.0" encoding="iso-8859-1"?>
<!-- Generator: Adobe Illustrator 19.0.0, SVG Export Plug-In . SVG Version: 6.00 Build 0)  -->
<svg version="1.1" id="Layer_1" xmlns="http://www.w3.org/2000/svg" xmlns:xlink="http://www.w3.org/1999/xlink" x="0px" y="0px"
	 viewBox="0 0 512.001 512.001" style="enable-background:new 0 0 512.001 512.001;" xml:space="preserve">
<g>
	<g>
		<path d="M300.414,28.154c-4.557,1.638-5.808,7.506-2.381,10.927l21.929,21.891c18.636,18.603-9.509,46.813-28.151,28.198
			c-39.777-39.711-36.01-35.899-37.053-37.083C154.366-25.875,4.205,42.034,0.082,171.646
			c-1.25,39.271,11.858,77.541,36.908,107.755c17.665,21.306,86.918,188.168,94.599,198.614
			c18.753,25.475,58.461,18.844,68.086-11.336c12.259-38.44,34.284-63.278,56.107-63.278c21.824,0,43.848,24.839,56.107,63.278
			c11.13,34.901,58.131,34.246,70.173,7.781c86.712-190.442,81.341-181.585,92.511-195.057
			C577.318,155.474,451.792-26.263,300.414,28.154z M123.387,207.774c10.809,13.038,1.373,32.639-15.326,32.639
			c-27.786,0-57.473-76.619-11.416-123.365c7.724-7.838,20.339-7.931,28.174-0.21c7.838,7.722,7.932,20.336,0.21,28.175
			C108.684,161.602,107.963,189.171,123.387,207.774z"/>
	</g>
</g>
<g>
</g>
<g>
</g>
<g>
</g>
<g>
</g>
<g>
</g>
<g>
</g>
<g>
</g>
<g>
</g>
<g>
</g>
<g>
</g>
<g>
</g>
<g>
</g>
<g>
</g>
<g>
</g>
<g>
</g>
</svg>
