<?xml version="1.0" encoding="iso-8859-1"?>
<!-- Generator: Adobe Illustrator 19.0.0, SVG Export Plug-In . SVG Version: 6.00 Build 0)  -->
<svg version="1.1" id="Layer_1" xmlns="http://www.w3.org/2000/svg" xmlns:xlink="http://www.w3.org/1999/xlink" x="0px" y="0px"
	 viewBox="0 0 458.539 458.539" style="enable-background:new 0 0 458.539 458.539;" xml:space="preserve">
<g>
	<g>
		<g>
			<path d="M204.359,164.114c0.966-6.124,3.87-11.992,8.698-16.606c9.047-8.646,22.185-10.354,32.853-5.283V40.388
				c0-4.488-3.638-8.126-8.126-8.126H8.126C3.638,32.261,0,35.9,0,40.388v144.66c0,4.488,3.638,8.126,8.126,8.126H169.17
				C177.753,180.83,189.957,170.814,204.359,164.114z M142.272,138.389l-42.318,28.118c-12.756,8.477-29.768-1.878-27.905-17.207
				l0.286-26.747l-19.881-7.189c-5.809-2.101-8.815-8.514-6.715-14.322c2.101-5.81,8.514-8.815,14.322-6.715l27.347,9.89
				c4.471,1.617,7.432,5.884,7.381,10.639l-0.127,11.812l21.646-14.382l-12.429-26.708c-2.606-5.601-0.179-12.254,5.421-14.86
				c5.601-2.609,12.254-0.179,14.86,5.421l14.044,30.177c3.601,1.249,6.843,3.625,9.115,7.044
				C152.837,121.663,150.578,132.87,142.272,138.389z M152.575,103.243c-6.772-10.192-3.999-23.945,6.193-30.717
				c10.192-6.772,23.945-3.999,30.717,6.193c6.772,10.192,3.999,23.945-6.193,30.717
				C173.099,116.208,159.347,113.436,152.575,103.243z"/>
			<path d="M288.288,183.115l36.671,3.223l-46.939,8.359l-34.322-35.913c-5.48-5.734-14.571-5.939-20.305-0.46
				s-5.939,14.57-0.46,20.304l39.642,41.479c3.328,3.483,8.173,5.059,12.9,4.217l54.52-9.709l-51.896,24.438
				c-7.647,3.601-16.469,1.709-22.011-4.073c-5.931-6.216,1.488,1.549-43.969-46.015c-2.75-2.877-4.794-6.169-6.146-9.663
				c-25.173,13.664-41.562,40.729-32.735,66.814L245.932,256H71.915c-9.518,0-17.233,7.716-17.233,17.233
				c0,9.518,7.716,17.233,17.233,17.233c142.21-0.578,182.282-0.416,185.804-0.648c7.659-0.505,12.302-2.623,15.297-4.601
				c10.379-6.855,77.081-50.91,85.795-56.665c10.409-6.875,12.764-21.184,5.086-31.032l-22.401-28.735
				c-7.271-9.327-20.726-10.993-30.052-3.722l-5.788,4.512c-2.839-8.247-10.646-14.182-19.857-14.182
				c-4.731,0-9.082,1.582-12.594,4.221c-1.553,1.166-2.936,2.539-4.113,4.083l18.499,19.357L288.288,183.115z"/>
			<circle cx="390.905" cy="154.5" r="31.697"/>
			<path d="M456.082,197.148c-4.528-6.884-13.78-8.795-20.666-4.268L267.443,303.355c-9.305,0-158.561,0-219.239,0
				c-8.241,0-14.921,6.68-14.921,14.921c0,8.241,6.681,14.921,14.921,14.921h154.092v34.556H100.72
				c-10.053,0-18.203,8.149-18.203,18.203s8.15,18.203,18.203,18.203h29.02c-0.448,1.536-0.699,3.156-0.699,4.837
				c0,9.543,7.737,17.28,17.28,17.28c9.544,0,17.28-7.737,17.28-17.28c0-1.681-0.252-3.301-0.699-4.837h154.999
				c-0.448,1.536-0.699,3.156-0.699,4.837c0,9.543,7.737,17.28,17.28,17.28c9.543,0,17.28-7.737,17.28-17.28
				c0-1.681-0.252-3.301-0.699-4.837h29.019c10.053,0,18.203-8.149,18.203-18.203s-8.15-18.203-18.203-18.203H278.506v-36.102
				c0.55-0.271,1.088-0.569,1.603-0.908l171.706-112.929C458.7,213.285,460.611,204.033,456.082,197.148z"/>
		</g>
	</g>
</g>
<g>
</g>
<g>
</g>
<g>
</g>
<g>
</g>
<g>
</g>
<g>
</g>
<g>
</g>
<g>
</g>
<g>
</g>
<g>
</g>
<g>
</g>
<g>
</g>
<g>
</g>
<g>
</g>
<g>
</g>
</svg>
