<svg width="78" height="78" viewBox="0 0 78 78" fill="none" xmlns="http://www.w3.org/2000/svg">
<g filter="url(#filter0_d_102_147)">
<path d="M39 60C53.9117 60 66 47.9117 66 33C66 18.0883 53.9117 6 39 6C24.0883 6 12 18.0883 12 33C12 47.9117 24.0883 60 39 60Z" fill="white"/>
</g>
<path d="M38.9995 18.5981C36.1514 18.5981 33.3673 19.4427 30.9993 21.025C28.6312 22.6073 26.7855 24.8562 25.6956 27.4875C24.6057 30.1188 24.3206 33.0141 24.8762 35.8074C25.4318 38.6008 26.8033 41.1666 28.8172 43.1805C30.831 45.1944 33.3969 46.5658 36.1902 47.1215C38.9835 47.6771 41.8789 47.3919 44.5101 46.302C47.1414 45.2121 49.3904 43.3664 50.9727 40.9984C52.5549 38.6303 53.3995 35.8462 53.3995 32.9981C53.4003 31.1069 53.0284 29.234 52.305 27.4865C51.5817 25.7391 50.521 24.1513 49.1837 22.814C47.8463 21.4766 46.2586 20.416 44.5111 19.6926C42.7637 18.9692 40.8908 18.5973 38.9995 18.5981ZM39.7087 33.5966L35.7829 38.264C35.6246 38.4523 35.3981 38.5699 35.1531 38.5911C34.9081 38.6123 34.6648 38.5352 34.4765 38.377C34.2883 38.2187 34.1707 37.9922 34.1495 37.7472C34.1283 37.5022 34.2053 37.2589 34.3636 37.0706L38.0716 32.6606V22.1846C38.0716 21.9388 38.1693 21.703 38.3431 21.5292C38.517 21.3553 38.7527 21.2576 38.9986 21.2576C39.2444 21.2576 39.4802 21.3553 39.6541 21.5292C39.8279 21.703 39.9256 21.9388 39.9256 22.1846V32.9981C39.9267 33.2168 39.8505 33.4288 39.7105 33.5966H39.7087Z" fill="#BD1E2D"/>
<defs>
<filter id="filter0_d_102_147" x="0" y="0" width="78" height="78" filterUnits="userSpaceOnUse" color-interpolation-filters="sRGB">
<feFlood flood-opacity="0" result="BackgroundImageFix"/>
<feColorMatrix in="SourceAlpha" type="matrix" values="0 0 0 0 0 0 0 0 0 0 0 0 0 0 0 0 0 0 127 0" result="hardAlpha"/>
<feOffset dy="6"/>
<feGaussianBlur stdDeviation="6"/>
<feColorMatrix type="matrix" values="0 0 0 0 0 0 0 0 0 0 0 0 0 0 0 0 0 0 0.161 0"/>
<feBlend mode="normal" in2="BackgroundImageFix" result="effect1_dropShadow_102_147"/>
<feBlend mode="normal" in="SourceGraphic" in2="effect1_dropShadow_102_147" result="shape"/>
</filter>
</defs>
</svg>
